<?xml version="1.0" ?>

<!-- Uploaded to: SVG Repo, www.svgrepo.com, Generator: SVG Repo Mixer Tools -->
<svg fill="#000000" width="800px" height="800px" viewBox="0 0 100 100" id="Layer_1" version="1.1" xml:space="preserve" xmlns="http://www.w3.org/2000/svg" xmlns:xlink="http://www.w3.org/1999/xlink">

<g id="jackhammer"/>

<g id="drilling_machine"/>

<g id="hammer"/>

<g id="measuring_tape"/>

<g id="wrench"/>

<g id="saw"/>

<g id="building"/>

<g id="wall"/>

<g id="crane"/>

<g id="barrier_sign"/>

<g id="concept"/>

<g id="shovel"/>

<g id="architecture"/>

<g id="safety_helmet"/>

<g id="worker">

<g>

<path d="M45.1,43c0.6,0,1-0.4,1-1c0-2.2-1.8-4-4-4s-4,1.8-4,4c0,0.6,0.4,1,1,1s1-0.4,1-1c0-1.1,0.9-2,2-2s2,0.9,2,2    C44.1,42.6,44.6,43,45.1,43z"/>

<path d="M56,50.4c0.2-0.5,0-1.1-0.4-1.3c-0.5-0.2-1.1,0-1.3,0.4c-0.8,1.5-2.3,2.4-4.1,2.4s-3.4-0.9-4.1-2.4    c-0.2-0.5-0.8-0.7-1.3-0.4c-0.5,0.2-0.7,0.8-0.4,1.3c1.1,2.2,3.4,3.6,5.9,3.6S54.9,52.6,56,50.4z"/>

<path d="M55.1,43c0.6,0,1-0.4,1-1c0-1.1,0.9-2,2-2s2,0.9,2,2c0,0.6,0.4,1,1,1s1-0.4,1-1c0-2.2-1.8-4-4-4s-4,1.8-4,4    C54.1,42.6,54.6,43,55.1,43z"/>

<path d="M89.4,80.5c-0.9-5.1-4.7-9.1-9.8-10.2l-21.6-5V60l0,0c5.4-2.9,9-8.5,9-15h1c2.8,0,5-2.2,5-5c0-1.3-0.5-2.5-1.3-3.4    C73,36,74,34.6,74,33c0-1.9-1.3-3.4-3-3.9v-3c0-5.3-2.2-10.3-6-13.9V9c0-1.7-1.3-3-3-3c-1.4,0-2.6,1-2.9,2.4    c-1.6-0.6-3.3-1.1-5.1-1.2V7c0-1.7-1.3-3-3-3h-2c-1.7,0-3,1.3-3,3v0.2c-1.7,0.2-3.4,0.6-5.1,1.3C40.7,7.1,39.5,6,38,6    c-1.7,0-3,1.3-3,3v3.2c-3.8,3.6-6,8.6-6,13.9v3c-1.7,0.4-3,2-3,3.9c0,1.6,1,3,2.3,3.6C27.5,37.5,27,38.7,27,40c0,2.8,2.2,5,5,5h1    c0,6.5,3.7,12.1,9,15l0,0v5.2l-21.6,5c-5,1.2-8.8,5.2-9.8,10.2L8,94.8c-0.1,0.3,0,0.6,0.2,0.8C8.4,95.9,8.7,96,9,96h19h16h6h6h16    h19c0.3,0,0.6-0.1,0.8-0.4c0.2-0.2,0.3-0.5,0.2-0.8L89.4,80.5z M72,90H56c-0.6,0-1,0.4-1,1v3h-4v-7c8.9-0.2,18-3.4,18-10v-7.2    l8,1.9V94h-4v-3C73,90.4,72.6,90,72,90z M44,90H28c-0.6,0-1,0.4-1,1v3h-4V71.7l8-1.9V77c0,3.2,2.2,5.9,6.2,7.7    c3.2,1.4,7.3,2.2,11.8,2.3v7h-4v-3C45,90.4,44.6,90,44,90z M44.7,69.9C46.1,70.6,48,71,50,71c3.4,0,7-1.2,7.8-3.8L61,68l0,0    c0,3.9-5.5,6-11,6s-11-2.1-11-6l0,0l3.2-0.7C42.6,68.3,43.4,69.2,44.7,69.9z M41.3,74.1c2.3,1.2,5.4,1.9,8.7,1.9    c6.1,0,12.6-2.4,13-7.6l4,0.9V77c0,5.3-8.6,8-17,8s-17-2.7-17-8v-7.6l4-0.9C37.2,70.8,38.6,72.8,41.3,74.1z M68,43h-1v-6h1    c1.7,0,3,1.3,3,3S69.7,43,68,43z M69,26.1V29h-6v-6h1c0.6,0,1-0.4,1-1v-6.8C67.6,18.2,69,22.1,69,26.1z M62,8c0.6,0,1,0.4,1,1v12    h-2V9C61,8.4,61.4,8,62,8z M50,17c2.2,0,4,1.8,4,4s-1.8,4-4,4s-4-1.8-4-4S47.8,17,50,17z M49,6h2c0.6,0,1,0.4,1,1v8.4    c-0.6-0.2-1.3-0.4-2-0.4s-1.4,0.1-2,0.4V7C48,6.4,48.4,6,49,6z M46,16.5c-1.2,1.1-2,2.7-2,4.5c0,3.3,2.7,6,6,6s6-2.7,6-6    c0-1.8-0.8-3.4-2-4.5V9.1c1.7,0.2,3.4,0.7,5,1.4V22c0,0.6,0.4,1,1,1h1v6H39v-6h1c0.6,0,1-0.4,1-1V10.6c1.6-0.7,3.3-1.2,5-1.5V16.5    z M37,9c0-0.6,0.4-1,1-1s1,0.4,1,1v12h-2V9z M31,26.1c0-4,1.4-7.9,4-11V22c0,0.6,0.4,1,1,1h1v6h-6V26.1z M30,31h40    c1.1,0,2,0.9,2,2c0,1.1-0.9,2-2,2h-2h-2H34h-2h-2c-1.1,0-2-0.9-2-2S28.9,31,30,31z M32,43c-1.7,0-3-1.3-3-3s1.3-3,3-3h1v6H32z     M35,45v-1v-7h30v7v1c0,8.3-6.7,15-15,15S35,53.3,35,45z M50,62c2.1,0,4.1-0.4,6-1.1V66c0,1.9-3.1,3-6,3s-6-1.1-6-3v-5.1    C45.9,61.6,47.9,62,50,62z M12.6,80.9c0.8-4.3,4-7.7,8.2-8.7H21V94H10.2L12.6,80.9z M29,94v-2h14v2H29z M57,94v-2h14v2H57z M79,94    V72.2h0.2c4.2,1,7.5,4.4,8.2,8.7L89.8,94H79z"/>

</g>

</g>

<g id="teamwork"/>

<g id="roller_brush"/>

<g id="designs"/>

<g id="trolley"/>

<g id="pick_axe"/>

</svg>